<svg width="125" height="25" viewBox="0 0 125 25" fill="none" xmlns="http://www.w3.org/2000/svg">
<path d="M0 0.365234C0.841146 0.564453 1.59375 0.719401 2.25781 0.830078C2.94401 0.91862 3.51953 0.985026 3.98438 1.0293C4.53776 1.0957 5.02474 1.11784 5.44531 1.0957C5.97656 1.07357 6.64062 0.996094 7.4375 0.863281C8.23438 0.730469 9.07552 0.597656 9.96094 0.464844C10.8464 0.332031 11.7207 0.221354 12.584 0.132812C13.4473 0.0442708 14.1999 0.0332031 14.8418 0.0996094C15.4837 0.166016 16.1589 0.320964 16.8672 0.564453C17.5755 0.785807 18.2396 1.0957 18.8594 1.49414C19.4792 1.87044 20.0104 2.33529 20.4531 2.88867C20.918 3.44206 21.2057 4.08398 21.3164 4.81445C21.4271 5.52279 21.3607 6.28646 21.1172 7.10547C20.8737 7.90234 20.4863 8.68815 19.9551 9.46289C19.4238 10.2155 18.7598 10.9128 17.9629 11.5547C17.166 12.1966 16.2806 12.7168 15.3066 13.1152C14.5319 13.403 13.6908 13.6243 12.7832 13.7793C12.0085 13.9121 11.1009 14.0007 10.0605 14.0449C9.04232 14.0671 7.95768 13.9564 6.80664 13.7129C6.65169 14.3548 6.56315 14.9525 6.54102 15.5059C6.54102 16.0371 6.56315 16.513 6.60742 16.9336C6.67383 17.4206 6.76237 17.8633 6.87305 18.2617C7.00586 18.6602 7.17188 19.125 7.37109 19.6562C7.54818 20.099 7.7474 20.6413 7.96875 21.2832C8.21224 21.903 8.5 22.6003 8.83203 23.375C8.43359 23.375 8.04622 23.3861 7.66992 23.4082C7.29362 23.4082 6.95052 23.4193 6.64062 23.4414C6.28646 23.4635 5.95443 23.4857 5.64453 23.5078C5.29036 23.5299 4.89193 23.5742 4.44922 23.6406C4.07292 23.6849 3.59701 23.7513 3.02148 23.8398C2.4681 23.9284 1.83724 24.0391 1.12891 24.1719C1.59375 23.5078 1.95898 22.8991 2.22461 22.3457C2.51237 21.7702 2.72266 21.2721 2.85547 20.8516C3.01042 20.3646 3.11003 19.9219 3.1543 19.5234C3.17643 19.1914 3.17643 18.6048 3.1543 17.7637C3.1543 16.9225 3.14323 15.9486 3.12109 14.8418C3.09896 13.735 3.06576 12.5729 3.02148 11.3555C2.97721 10.138 2.92188 8.99805 2.85547 7.93555C2.78906 6.85091 2.71159 5.92122 2.62305 5.14648C2.55664 4.37174 2.49023 3.86263 2.42383 3.61914C2.33529 3.33138 2.18034 3.02148 1.95898 2.68945C1.7819 2.40169 1.52734 2.06966 1.19531 1.69336C0.885417 1.29492 0.486979 0.852214 0 0.365234ZM6.87305 6.90625C6.85091 7.1276 6.83984 7.36003 6.83984 7.60352C6.83984 8.06836 6.87305 8.66602 6.93945 9.39648C7.0944 9.77279 7.28255 10.0827 7.50391 10.3262C7.7474 10.5697 8.00195 10.7578 8.26758 10.8906C8.55534 11.0234 8.8431 11.112 9.13086 11.1562C9.41862 11.2005 9.70638 11.2227 9.99414 11.2227C10.6582 11.2005 11.3555 11.0456 12.0859 10.7578C13.0599 10.3372 13.7461 9.73958 14.1445 8.96484C14.543 8.1901 14.7533 7.39323 14.7754 6.57422C14.7975 5.75521 14.6536 5.0026 14.3438 4.31641C14.056 3.63021 13.7018 3.16536 13.2812 2.92188C12.9271 2.76693 12.4733 2.70052 11.9199 2.72266C11.4329 2.74479 10.8242 2.86654 10.0938 3.08789C9.36328 3.30924 8.4668 3.70768 7.4043 4.2832C7.29362 4.68164 7.20508 5.03581 7.13867 5.3457C7.07227 5.6556 7.01693 5.93229 6.97266 6.17578C6.92839 6.44141 6.89518 6.6849 6.87305 6.90625ZM21.1836 8.23438C21.6042 8.25651 21.9805 8.26758 22.3125 8.26758C22.6667 8.24544 22.9655 8.22331 23.209 8.20117C23.4967 8.17904 23.7513 8.1569 23.9727 8.13477C24.3047 8.09049 24.6478 8.03516 25.002 7.96875C25.3118 7.92448 25.6328 7.86914 25.9648 7.80273C26.319 7.71419 26.6621 7.61458 26.9941 7.50391C26.8613 7.83594 26.7507 8.1237 26.6621 8.36719C26.5736 8.61068 26.5072 8.82096 26.4629 8.99805C26.3965 9.19727 26.3633 9.36328 26.3633 9.49609C26.3411 9.65104 26.3301 9.83919 26.3301 10.0605C26.3079 10.4368 26.3079 11.0456 26.3301 11.8867C27.4811 10.8906 28.444 10.1159 29.2188 9.5625C30.0156 9.00911 30.6465 8.57747 31.1113 8.26758C31.6647 7.91341 32.0964 7.68099 32.4062 7.57031C33.2253 7.4375 33.9447 7.62565 34.5645 8.13477C34.8301 8.35612 35.0846 8.65495 35.3281 9.03125C35.5716 9.38542 35.7819 9.86133 35.959 10.459C36.1361 11.0566 36.2689 11.776 36.3574 12.6172C36.446 13.4362 36.457 14.4212 36.3906 15.5723C35.9258 15.6165 35.5052 15.6608 35.1289 15.7051C34.7747 15.7493 34.4759 15.7826 34.2324 15.8047C33.9447 15.849 33.679 15.8711 33.4355 15.8711L32.5391 15.9707C32.2292 16.015 31.8418 16.0592 31.377 16.1035C30.9342 16.1257 30.3919 16.1699 29.75 16.2363C30.6797 15.4837 31.2773 14.8307 31.543 14.2773C31.8307 13.7018 31.9525 13.2259 31.9082 12.8496C31.8639 12.429 31.6647 12.0638 31.3105 11.7539C30.89 11.5104 30.4362 11.4219 29.9492 11.4883C29.5286 11.5326 29.0417 11.7207 28.4883 12.0527C27.9349 12.3848 27.3483 13.0046 26.7285 13.9121C26.7728 15.3288 26.8171 16.502 26.8613 17.4316C26.9277 18.3613 26.9831 19.1139 27.0273 19.6895C27.0938 20.3535 27.1491 20.8737 27.1934 21.25C27.2598 21.582 27.3926 21.9362 27.5918 22.3125C27.7467 22.6224 27.9681 22.9655 28.2559 23.3418C28.5436 23.7181 28.9199 24.0944 29.3848 24.4707C28.4108 24.4264 27.6139 24.4264 26.9941 24.4707C26.6178 24.4928 26.2858 24.515 25.998 24.5371C25.6882 24.5814 25.3561 24.6257 25.002 24.6699C24.6921 24.7142 24.3268 24.7585 23.9062 24.8027C23.5078 24.8691 23.0651 24.9355 22.5781 25.002C22.7552 24.7585 22.8991 24.4707 23.0098 24.1387C23.1204 23.8288 23.209 23.5299 23.2754 23.2422C23.3639 22.9102 23.4303 22.5671 23.4746 22.2129C23.4967 21.903 23.5078 21.4382 23.5078 20.8184C23.5299 20.1986 23.5189 19.5013 23.4746 18.7266C23.4525 17.9297 23.4193 17.1107 23.375 16.2695C23.3307 15.4062 23.2754 14.5983 23.209 13.8457C23.1426 13.0931 23.0651 12.4401 22.9766 11.8867C22.9102 11.3112 22.8327 10.9128 22.7441 10.6914C22.6335 10.4258 22.5007 10.1602 22.3457 9.89453C22.2129 9.65104 22.0469 9.39648 21.8477 9.13086C21.6484 8.8431 21.4271 8.54427 21.1836 8.23438ZM40.2754 10.6914C40.3861 10.5586 40.4525 10.3151 40.4746 9.96094C40.5189 9.58464 40.6074 9.16406 40.7402 8.69922C40.8952 8.23438 41.1497 7.7474 41.5039 7.23828C41.8581 6.72917 42.4336 6.25326 43.2305 5.81055C44.0052 5.36784 44.7578 5.10221 45.4883 5.01367C46.2188 4.92513 46.916 4.95833 47.5801 5.11328C48.2441 5.26823 48.8639 5.51172 49.4395 5.84375C50.0371 6.17578 50.5794 6.54102 51.0664 6.93945C51.3984 7.20508 51.6641 7.59245 51.8633 8.10156C52.0625 8.58854 52.2174 9.14193 52.3281 9.76172C52.4388 10.3815 52.5163 11.0345 52.5605 11.7207C52.627 12.3848 52.6712 13.0378 52.6934 13.6797C52.7155 14.2995 52.7266 14.875 52.7266 15.4062C52.7487 15.9154 52.793 16.3359 52.8594 16.668C52.9479 17.1549 53.1029 17.5755 53.3242 17.9297C53.5456 18.2617 53.7891 18.5495 54.0547 18.793C54.3203 19.0143 54.5859 19.1914 54.8516 19.3242C55.1172 19.457 55.3496 19.5566 55.5488 19.623C55.6816 19.6895 55.8034 19.7337 55.9141 19.7559C56.1354 19.8444 56.2904 19.8444 56.3789 19.7559C56.2461 20.0658 56.1243 20.3314 56.0137 20.5527C55.903 20.7741 55.8145 20.9622 55.748 21.1172C55.6595 21.2943 55.582 21.4382 55.5156 21.5488C55.4492 21.6816 55.3717 21.8034 55.2832 21.9141C55.2168 22.0247 55.1283 22.1465 55.0176 22.2793C54.9069 22.4121 54.7962 22.556 54.6855 22.7109C54.3978 22.6003 54.1211 22.4674 53.8555 22.3125C53.612 22.1576 53.3906 22.0137 53.1914 21.8809C52.9479 21.7259 52.7266 21.571 52.5273 21.416C52.3281 21.2611 52.14 21.084 51.9629 20.8848C51.8079 20.7077 51.6419 20.5195 51.4648 20.3203C51.3099 20.1211 51.1771 19.8997 51.0664 19.6562C50.9336 19.944 50.6126 20.3535 50.1035 20.8848C49.6165 21.416 48.9746 21.903 48.1777 22.3457C47.3809 22.7663 46.4512 23.0651 45.3887 23.2422C44.3483 23.4193 43.1973 23.2975 41.9355 22.877C41.3822 22.6999 40.862 22.4453 40.375 22.1133C39.888 21.7591 39.4674 21.3385 39.1133 20.8516C38.7812 20.3646 38.5378 19.8112 38.3828 19.1914C38.25 18.5495 38.2611 17.8411 38.416 17.0664C38.571 16.2917 38.8477 15.6387 39.2461 15.1074C39.6445 14.5762 40.1204 14.1445 40.6738 13.8125C41.2272 13.4805 41.847 13.2259 42.5332 13.0488C43.2194 12.8717 43.9277 12.75 44.6582 12.6836C45.2337 12.6615 45.8092 12.6947 46.3848 12.7832C46.8717 12.8717 47.3809 13.0378 47.9121 13.2812C48.4434 13.5026 48.8971 13.8457 49.2734 14.3105C49.2513 13.1374 49.207 12.2077 49.1406 11.5215C49.0964 10.8132 49.0521 10.2708 49.0078 9.89453C48.9193 9.45182 48.8418 9.14193 48.7754 8.96484C48.6647 8.8099 48.543 8.63281 48.4102 8.43359C48.2995 8.23438 48.1556 8.05729 47.9785 7.90234C47.8014 7.72526 47.5801 7.58138 47.3145 7.4707C47.0488 7.36003 46.7389 7.31576 46.3848 7.33789C46.0085 7.36003 45.7096 7.45964 45.4883 7.63672C45.2669 7.8138 45.0898 8.02409 44.957 8.26758C44.8464 8.48893 44.7799 8.73242 44.7578 8.99805C44.7357 9.26367 44.7467 9.49609 44.791 9.69531C44.8353 9.82812 44.9017 9.97201 44.9902 10.127C45.0788 10.2598 45.2005 10.4036 45.3555 10.5586C45.5104 10.7135 45.7207 10.8464 45.9863 10.957C45.4772 11.0234 45.0234 11.0788 44.625 11.123C44.2266 11.1452 43.8835 11.1784 43.5957 11.2227C43.2637 11.2669 42.9759 11.3001 42.7324 11.3223C42.4889 11.3444 42.2012 11.3887 41.8691 11.4551C41.5814 11.4993 41.2272 11.5547 40.8066 11.6211C40.3861 11.6875 39.8991 11.776 39.3457 11.8867C39.4785 11.7318 39.6003 11.5879 39.7109 11.4551C39.8216 11.3001 39.9212 11.1673 40.0098 11.0566C40.0983 10.9238 40.1868 10.8021 40.2754 10.6914ZM45.2559 14.6426C44.8574 14.6647 44.459 14.7643 44.0605 14.9414C43.6621 15.0964 43.3079 15.3288 42.998 15.6387C42.6882 15.9264 42.4225 16.2695 42.2012 16.668C42.002 17.0443 41.9023 17.4648 41.9023 17.9297C41.9023 18.3945 42.013 18.804 42.2344 19.1582C42.4779 19.4902 42.7878 19.7669 43.1641 19.9883C43.5625 20.2096 43.9831 20.3424 44.4258 20.3867C44.8906 20.431 45.3444 20.3867 45.7871 20.2539C46.2077 20.099 46.6061 19.8555 46.9824 19.5234C47.3587 19.1693 47.6797 18.793 47.9453 18.3945C48.2109 17.974 48.3991 17.5645 48.5098 17.166C48.6204 16.7454 48.6315 16.4023 48.543 16.1367C48.3659 15.5612 47.9674 15.1628 47.3477 14.9414C46.7279 14.6979 46.0306 14.5983 45.2559 14.6426ZM53.8555 5.84375C54.2318 5.91016 54.6191 5.96549 55.0176 6.00977C55.3939 6.0319 55.737 6.05404 56.0469 6.07617C56.401 6.09831 56.7441 6.10938 57.0762 6.10938C57.4082 6.10938 57.7845 6.09831 58.2051 6.07617C58.5592 6.05404 58.9798 6.02083 59.4668 5.97656C59.9759 5.93229 60.5293 5.86589 61.127 5.77734C60.7728 5.97656 60.4961 6.18685 60.2969 6.4082C60.0977 6.62956 59.9427 6.82878 59.832 7.00586C59.6992 7.22721 59.6107 7.42643 59.5664 7.60352C59.5221 7.7806 59.5332 8.14583 59.5996 8.69922C59.666 9.2526 59.7546 9.89453 59.8652 10.625C59.998 11.3555 60.1419 12.1191 60.2969 12.916C60.4518 13.7129 60.6068 14.4434 60.7617 15.1074C60.9388 15.7715 61.0938 16.3249 61.2266 16.7676C61.3815 17.2103 61.5033 17.4206 61.5918 17.3984C61.6803 17.3984 61.8132 17.1771 61.9902 16.7344C62.1895 16.2917 62.4108 15.7493 62.6543 15.1074C62.8978 14.4434 63.1523 13.724 63.418 12.9492C63.6836 12.1523 63.916 11.4108 64.1152 10.7246C64.3145 10.0384 64.4694 9.46289 64.5801 8.99805C64.7129 8.51107 64.7682 8.22331 64.7461 8.13477C64.6797 8.04622 64.6022 7.92448 64.5137 7.76953C64.3587 7.52604 64.0156 7.10547 63.4844 6.50781C64.1263 6.55208 64.6797 6.59635 65.1445 6.64062C65.6094 6.66276 65.9857 6.69596 66.2734 6.74023C66.6055 6.78451 66.8711 6.81771 67.0703 6.83984C67.2695 6.86198 67.5573 6.86198 67.9336 6.83984C68.2435 6.83984 68.653 6.82878 69.1621 6.80664C69.6934 6.76237 70.3464 6.69596 71.1211 6.60742C70.5456 6.93945 70.0697 7.23828 69.6934 7.50391C69.3392 7.7474 69.0625 7.95768 68.8633 8.13477C68.6198 8.35612 68.4427 8.54427 68.332 8.69922C68.1771 8.98698 67.9004 9.67318 67.502 10.7578C67.3249 11.2227 67.1035 11.7982 66.8379 12.4844C66.5944 13.1706 66.2956 14.0007 65.9414 14.9746C65.6094 15.9264 65.2109 17.0443 64.7461 18.3281C64.2812 19.612 63.7611 21.084 63.1855 22.7441L59.9648 23.0762C59.5443 21.6816 59.2012 20.5195 58.9355 19.5898C58.6921 18.638 58.4928 17.8743 58.3379 17.2988C58.1608 16.6348 58.028 16.1146 57.9395 15.7383C57.8288 15.3177 57.696 14.709 57.541 13.9121C57.3861 13.0931 57.2311 12.263 57.0762 11.4219C56.9212 10.5807 56.7663 9.82812 56.6113 9.16406C56.4564 8.47786 56.3346 8.05729 56.2461 7.90234C56.1576 7.79167 56.0026 7.63672 55.7812 7.4375C55.6042 7.26042 55.3607 7.05013 55.0508 6.80664C54.7409 6.54102 54.3424 6.22005 53.8555 5.84375ZM78.0605 18.793C78.6803 18.793 79.2559 18.7266 79.7871 18.5938C80.2298 18.4831 80.6504 18.306 81.0488 18.0625C81.4694 17.7969 81.7461 17.4095 81.8789 16.9004C82.3216 16.9889 82.6979 17.0664 83.0078 17.1328C83.3177 17.1771 83.5833 17.2214 83.8047 17.2656C84.0482 17.332 84.2585 17.3763 84.4355 17.3984C84.6126 17.4427 84.8229 17.487 85.0664 17.5312C85.2878 17.5755 85.5534 17.6309 85.8633 17.6973C86.1953 17.7415 86.5827 17.8079 87.0254 17.8965C86.6934 17.8522 86.3503 17.8854 85.9961 17.9961C85.6641 18.1068 85.3431 18.2285 85.0332 18.3613C84.679 18.5163 84.347 18.7044 84.0371 18.9258C83.8379 19.0586 83.6055 19.2578 83.3398 19.5234C83.0964 19.7891 82.7422 20.0436 82.2773 20.2871C81.8125 20.5306 81.1927 20.7409 80.418 20.918C79.6654 21.0729 78.6914 21.1283 77.4961 21.084C76.0573 21.0397 74.8509 20.7852 73.877 20.3203C72.903 19.8333 72.1172 19.2467 71.5195 18.5605C70.9219 17.8522 70.4902 17.0885 70.2246 16.2695C69.959 15.4505 69.8151 14.6868 69.793 13.9785C69.7708 13.2702 69.9811 12.5286 70.4238 11.7539C70.8665 10.9792 71.4863 10.2708 72.2832 9.62891C73.1022 8.98698 74.0872 8.4668 75.2383 8.06836C76.3893 7.64779 77.651 7.4375 79.0234 7.4375C79.8203 7.4375 80.5508 7.53711 81.2148 7.73633C81.901 7.91341 82.5208 8.1569 83.0742 8.4668C83.6497 8.77669 84.1478 9.13086 84.5684 9.5293C84.9889 9.9056 85.3431 10.293 85.6309 10.6914C85.9186 11.112 86.1621 11.5547 86.3613 12.0195C86.5384 12.418 86.6823 12.8717 86.793 13.3809C86.9036 13.89 86.9368 14.4102 86.8926 14.9414C85.2103 14.9857 83.849 15.0189 82.8086 15.041C81.7904 15.0632 80.9935 15.0742 80.418 15.0742H78.9238H77.7949C77.3965 15.0742 76.8763 15.0853 76.2344 15.1074C75.5924 15.1296 74.8066 15.1628 73.877 15.207C73.9876 16.0924 74.2643 16.7786 74.707 17.2656C75.1719 17.7305 75.6589 18.0846 76.168 18.3281C76.7435 18.5938 77.3743 18.7487 78.0605 18.793ZM75.0723 12.8164C75.7806 12.8607 76.3672 12.8939 76.832 12.916C77.319 12.9382 77.7174 12.9603 78.0273 12.9824C78.3594 13.0046 78.625 13.0156 78.8242 13.0156H79.6543C80.2077 13.0156 81.237 12.9824 82.7422 12.916C82.6758 11.9421 82.4655 11.2005 82.1113 10.6914C81.7793 10.1823 81.4251 9.80599 81.0488 9.5625C80.6061 9.29688 80.1191 9.14193 79.5879 9.09766C78.1491 9.11979 77.0755 9.41862 76.3672 9.99414C75.681 10.5697 75.2493 11.5104 75.0723 12.8164ZM96.8535 18.793C97.4733 18.793 98.0488 18.7266 98.5801 18.5938C99.0228 18.4831 99.4434 18.306 99.8418 18.0625C100.262 17.7969 100.539 17.4095 100.672 16.9004C101.115 16.9889 101.491 17.0664 101.801 17.1328C102.111 17.1771 102.376 17.2214 102.598 17.2656C102.841 17.332 103.051 17.3763 103.229 17.3984C103.406 17.4427 103.616 17.487 103.859 17.5312C104.081 17.5755 104.346 17.6309 104.656 17.6973C104.988 17.7415 105.376 17.8079 105.818 17.8965C105.486 17.8522 105.143 17.8854 104.789 17.9961C104.457 18.1068 104.136 18.2285 103.826 18.3613C103.472 18.5163 103.14 18.7044 102.83 18.9258C102.631 19.0586 102.398 19.2578 102.133 19.5234C101.889 19.7891 101.535 20.0436 101.07 20.2871C100.605 20.5306 99.9857 20.7409 99.2109 20.918C98.4583 21.0729 97.4844 21.1283 96.2891 21.084C94.8503 21.0397 93.6439 20.7852 92.6699 20.3203C91.696 19.8333 90.9102 19.2467 90.3125 18.5605C89.7148 17.8522 89.2832 17.0885 89.0176 16.2695C88.752 15.4505 88.6081 14.6868 88.5859 13.9785C88.5638 13.2702 88.7741 12.5286 89.2168 11.7539C89.6595 10.9792 90.2793 10.2708 91.0762 9.62891C91.8952 8.98698 92.8802 8.4668 94.0312 8.06836C95.1823 7.64779 96.444 7.4375 97.8164 7.4375C98.6133 7.4375 99.3438 7.53711 100.008 7.73633C100.694 7.91341 101.314 8.1569 101.867 8.4668C102.443 8.77669 102.941 9.13086 103.361 9.5293C103.782 9.9056 104.136 10.293 104.424 10.6914C104.712 11.112 104.955 11.5547 105.154 12.0195C105.331 12.418 105.475 12.8717 105.586 13.3809C105.697 13.89 105.73 14.4102 105.686 14.9414C104.003 14.9857 102.642 15.0189 101.602 15.041C100.583 15.0632 99.7865 15.0742 99.2109 15.0742H97.7168H96.5879C96.1895 15.0742 95.6693 15.0853 95.0273 15.1074C94.3854 15.1296 93.5996 15.1628 92.6699 15.207C92.7806 16.0924 93.0573 16.7786 93.5 17.2656C93.9648 17.7305 94.4518 18.0846 94.9609 18.3281C95.5365 18.5938 96.1673 18.7487 96.8535 18.793ZM93.8652 12.8164C94.5736 12.8607 95.1602 12.8939 95.625 12.916C96.112 12.9382 96.5104 12.9603 96.8203 12.9824C97.1523 13.0046 97.418 13.0156 97.6172 13.0156H98.4473C99.0007 13.0156 100.03 12.9824 101.535 12.916C101.469 11.9421 101.258 11.2005 100.904 10.6914C100.572 10.1823 100.218 9.80599 99.8418 9.5625C99.3991 9.29688 98.9121 9.14193 98.3809 9.09766C96.9421 9.11979 95.8685 9.41862 95.1602 9.99414C94.474 10.5697 94.0423 11.5104 93.8652 12.8164ZM108.043 20.4863C108.198 19.7559 108.309 19.1139 108.375 18.5605C108.464 17.985 108.53 17.5091 108.574 17.1328C108.618 16.6901 108.641 16.3138 108.641 16.0039C108.618 15.6276 108.596 15.1849 108.574 14.6758C108.574 14.1445 108.552 13.6243 108.508 13.1152C108.486 12.584 108.452 12.1191 108.408 11.7207C108.364 11.3001 108.309 11.0013 108.242 10.8242C108.154 10.6471 108.032 10.459 107.877 10.2598C107.567 9.88346 107.113 9.51823 106.516 9.16406C107.025 9.05339 107.456 8.96484 107.811 8.89844C108.187 8.8099 108.497 8.73242 108.74 8.66602C109.006 8.57747 109.238 8.5 109.438 8.43359C109.615 8.36719 109.825 8.30078 110.068 8.23438C110.268 8.1901 110.511 8.13477 110.799 8.06836C111.087 8.00195 111.419 7.92448 111.795 7.83594L111.695 10.8574C112.404 10.0163 113.123 9.38542 113.854 8.96484C114.584 8.54427 115.27 8.24544 115.912 8.06836C116.643 7.84701 117.362 7.73633 118.07 7.73633C118.956 7.7806 119.775 7.92448 120.527 8.16797C121.302 8.41146 121.966 8.69922 122.52 9.03125C123.095 9.34115 123.56 9.67318 123.914 10.0273C124.268 10.3815 124.479 10.6914 124.545 10.957C124.811 11.8203 124.877 12.6172 124.744 13.3477C124.611 14.056 124.434 14.7533 124.213 15.4395C124.014 16.1035 123.837 16.7676 123.682 17.4316C123.549 18.0957 123.604 18.8151 123.848 19.5898C123.936 19.7891 124.025 19.9883 124.113 20.1875C124.202 20.3646 124.312 20.5417 124.445 20.7188C124.578 20.8958 124.733 21.0397 124.91 21.1504C124.667 21.1283 124.423 21.1172 124.18 21.1172C123.936 21.0951 123.715 21.0729 123.516 21.0508C123.272 21.0286 123.051 21.0065 122.852 20.9844C122.63 20.9622 122.331 20.9512 121.955 20.9512C121.313 20.9512 120.317 20.9844 118.967 21.0508C119.166 20.5859 119.321 20.1986 119.432 19.8887C119.564 19.5566 119.675 19.291 119.764 19.0918C119.852 18.8483 119.919 18.6602 119.963 18.5273C120.229 17.8854 120.383 17.1549 120.428 16.3359C120.494 15.5169 120.439 14.6868 120.262 13.8457C120.195 13.5579 120.085 13.2148 119.93 12.8164C119.775 12.418 119.564 12.0306 119.299 11.6543C119.055 11.278 118.757 10.957 118.402 10.6914C118.07 10.4258 117.683 10.2708 117.24 10.2266C116.798 10.1823 116.299 10.293 115.746 10.5586C115.215 10.8242 114.639 11.3112 114.02 12.0195C113.555 12.6172 113.189 13.3477 112.924 14.2109C112.68 14.9414 112.514 15.86 112.426 16.9668C112.337 18.0514 112.47 19.3242 112.824 20.7852C112.514 20.7409 112.227 20.7188 111.961 20.7188C111.695 20.6966 111.474 20.6745 111.297 20.6523C111.076 20.6302 110.876 20.6081 110.699 20.5859C110.5 20.5859 110.279 20.5749 110.035 20.5527C109.814 20.5527 109.537 20.5527 109.205 20.5527C108.873 20.5306 108.486 20.5085 108.043 20.4863Z" fill="black"/>
</svg>
